<?xml version="1.0" standalone="no"?>
<!DOCTYPE svg PUBLIC "-//W3C//DTD SVG 20010904//EN"
 "http://www.w3.org/TR/2001/REC-SVG-20010904/DTD/svg10.dtd">
<svg version="1.0" xmlns="http://www.w3.org/2000/svg"
 width="1000.000000pt" height="1000.000000pt" viewBox="0 0 1000.000000 1000.000000"
 preserveAspectRatio="xMidYMid meet">
<metadata>
Created by potrace 1.14, written by Peter Selinger 2001-2017
</metadata>
<g transform="translate(0.000000,1000.000000) scale(0.100000,-0.100000)"
fill="#000000" stroke="none">
<path d="M5800 9363 c-409 -231 -787 -522 -1161 -895 -131 -131 -274 -282
-356 -378 -12 -14 -32 -36 -44 -50 -11 -14 -38 -45 -58 -70 -20 -25 -39 -47
-42 -50 -8 -7 -190 -240 -215 -275 -11 -17 -36 -52 -55 -78 l-34 -48 120 -115
c66 -63 122 -114 126 -114 3 0 35 44 70 98 315 482 751 968 1103 1231 144 107
397 254 412 239 5 -6 58 -151 120 -333 25 -71 49 -139 54 -150 5 -11 41 -121
80 -245 40 -124 78 -243 85 -265 37 -109 240 -795 280 -945 2 -8 18 -64 35
-125 17 -60 33 -117 34 -125 2 -8 20 -76 41 -150 47 -175 166 -638 171 -670 3
-14 9 -38 14 -55 7 -24 92 -376 105 -435 5 -21 76 -328 85 -365 4 -16 8 -34 9
-40 8 -39 12 -58 27 -121 l16 -72 166 -158 c91 -88 240 -232 331 -321 91 -88
167 -160 169 -158 3 3 -164 583 -219 760 -10 33 -95 323 -189 645 -94 322
-189 644 -210 715 -21 72 -55 186 -75 255 -20 69 -50 170 -67 225 -16 55 -33
114 -38 130 -4 17 -24 86 -44 155 -21 69 -62 208 -92 310 -30 102 -70 237 -89
300 -19 63 -50 171 -70 240 -20 69 -47 161 -60 205 -13 44 -58 197 -100 340
-42 143 -87 296 -100 340 -13 44 -58 197 -100 340 -42 143 -82 278 -89 299 -6
22 -16 41 -21 42 -6 1 -62 -27 -125 -63z"/>
<path d="M1701 9059 c19 -17 70 -65 114 -107 44 -41 116 -109 160 -151 44 -41
118 -111 165 -155 252 -238 389 -367 420 -396 39 -36 290 -273 414 -390 43
-41 91 -86 105 -100 15 -14 65 -61 111 -105 173 -164 396 -374 430 -405 19
-18 96 -90 170 -160 74 -70 151 -142 170 -160 36 -33 268 -252 415 -391 44
-42 100 -95 125 -119 105 -99 288 -271 325 -305 22 -21 76 -72 120 -114 79
-74 351 -331 426 -401 20 -19 101 -96 180 -170 79 -74 159 -151 180 -170 58
-55 156 -148 249 -235 47 -44 154 -145 239 -225 84 -80 170 -161 190 -180 39
-36 82 -76 356 -335 87 -82 170 -161 185 -175 15 -14 89 -83 165 -155 75 -71
158 -150 184 -174 25 -23 75 -71 111 -105 36 -34 133 -125 215 -202 l150 -141
75 -11 c134 -20 299 -84 419 -163 41 -28 38 -23 -29 43 -66 64 -277 263 -380
358 -19 18 -64 60 -100 94 -36 33 -126 117 -200 186 -73 69 -143 134 -154 145
-12 11 -89 83 -171 160 -139 129 -197 183 -294 275 -20 19 -97 91 -171 160
-74 69 -142 132 -150 140 -9 8 -49 47 -90 85 -150 140 -336 314 -370 345 -19
18 -91 85 -160 150 -69 64 -138 129 -154 143 -16 15 -83 78 -150 141 -66 63
-137 128 -156 146 -19 18 -69 64 -110 103 -181 170 -222 209 -345 323 -71 67
-146 136 -165 154 -56 52 -288 269 -370 346 -41 39 -88 83 -103 97 -28 25
-226 211 -367 343 -41 39 -100 94 -130 122 -30 28 -78 72 -106 99 -51 48 -258
241 -324 303 -19 18 -91 85 -159 149 -68 64 -140 131 -160 150 -165 154 -297
277 -361 337 -41 39 -87 82 -101 95 -30 27 -256 239 -369 345 -232 219 -262
244 -289 244 -52 0 -184 41 -280 87 -53 25 -97 50 -99 54 -2 5 -11 9 -19 9
-10 0 -3 -11 18 -31z"/>
<path d="M3557 6953 c-3 -10 -27 -70 -53 -133 -81 -198 -222 -623 -270 -815
-4 -16 -9 -34 -10 -40 -6 -17 -34 -129 -38 -150 -2 -11 -9 -38 -15 -60 -29
-108 -109 -532 -125 -660 -2 -16 -9 -66 -15 -110 -16 -115 -19 -141 -26 -230
-4 -44 -9 -88 -11 -98 -26 -136 -25 -951 1 -1177 2 -19 6 -57 9 -85 14 -115
17 -142 21 -179 3 -21 7 -50 10 -65 2 -14 9 -57 15 -96 6 -38 17 -101 25 -140
8 -38 16 -81 19 -95 8 -44 57 -254 66 -285 6 -16 19 -64 31 -105 117 -425 322
-894 567 -1297 79 -132 220 -335 321 -466 l76 -98 110 2 c96 2 180 10 355 33
25 4 79 14 120 22 41 9 84 17 95 20 64 13 89 19 180 44 135 38 295 92 295 100
0 3 -35 40 -77 81 -558 543 -1028 1243 -1358 2024 -32 75 -117 311 -149 415
-20 63 -41 129 -46 146 -6 16 -28 102 -49 190 -35 140 -45 186 -66 294 -7 36
-26 149 -31 190 -2 19 -7 46 -9 59 -2 14 -7 54 -11 90 -3 36 -7 73 -9 82 -4
19 -15 154 -20 254 -5 87 -5 427 -1 515 7 113 17 231 31 353 13 110 15 117 35
237 5 30 12 71 15 90 11 62 56 273 71 330 9 30 24 89 35 130 26 101 139 452
151 466 6 8 -17 34 -69 80 -43 38 -80 71 -83 74 -18 19 -95 80 -101 80 -4 0
-9 -8 -12 -17z"/>
<path d="M4092 6413 c-68 -178 -123 -388 -147 -558 -2 -11 -6 -33 -9 -50 -3
-16 -7 -52 -11 -80 -3 -27 -7 -66 -10 -85 -27 -212 -27 -658 0 -1010 6 -85 24
-218 40 -310 3 -14 12 -63 20 -110 22 -127 23 -129 44 -210 98 -380 184 -618
323 -895 160 -321 341 -580 576 -826 l118 -123 45 60 c245 322 859 1145 859
1151 0 5 -24 17 -52 27 -29 10 -101 42 -160 72 -400 200 -788 549 -1040 934
-76 115 -216 393 -272 536 -51 133 -93 262 -132 412 -39 145 -39 145 -59 247
-22 114 -28 146 -50 285 -12 79 -22 165 -30 270 -4 47 -9 101 -11 120 -2 19
-4 77 -4 128 -1 50 -3 92 -5 92 -2 0 -17 -35 -33 -77z"/>
</g>
</svg>
